<svg xmlns="http://www.w3.org/2000/svg" xml:space="preserve" width="1000px" height="514.949px" x="0px" y="0px" viewBox="0 0 1000 514.949"><g fill="#0068B7"><path d="M703.669 385.4c-78.465 0-121.825-51.58-121.825-127.868 0-76.694 46.953-128.642 123.28-128.642 30.436 0 55.866 7.144 75.587 18.273l-8.238 53.361c-18.64-11.797-40.491-21.077-65.939-21.077-42.646 0-63.384 31.499-63.384 77.691 0 46.587 21.49 79.212 64.099 79.212 13.639 0 23.299-2.531 33.319-7.904v-44.068h-42.994l-7.183-45.499h103.573v120.372c-25.81 16.882-56.253 26.149-90.295 26.149M911.496 383.619c-33.359 0-61.268-7.145-86.356-18.615l8.941-52.313c25.429 13.633 53.755 22.938 78.477 22.938 17.551 0 29.741-7.549 29.741-22.215 0-13.988-7.17-20.451-41.938-33.701-49.438-18.98-70.935-35.104-70.935-75.949 0-47.635 37.252-73.077 84.534-73.077 32.323 0 53.086 6.096 74.564 16.478l-9.313 51.593c-22.165-12.912-45.511-20.042-64.504-20.042-18.634 0-27.594 7.851-27.594 19.321 0 12.544 6.804 18.639 37.607 30.462 53.828 19.688 75.278 38.328 75.278 77.73.002 53.757-39.406 77.39-88.502 77.39"/></g><linearGradient id="a" x1="202.7456" x2="120.3834" y1="-705.6558" y2="-623.2936" gradientTransform="translate(-124.02 788.417) scale(.9131)" gradientUnits="userSpaceOnUse"><stop offset="0" style="stop-color:#fcb811"/><stop offset="1" style="stop-color:#c3be2f"/></linearGradient><path fill="url(#a)" d="m53.788 137.123-18.409-20.305C12.839 155.368 0 200.054 0 245.5h12.682c.059-42.51 14.844-81.165 41.106-108.377z"/><linearGradient id="b" x1="117.752" x2="188.3504" y1="-563.6978" y2="-493.098" gradientTransform="translate(-124.02 788.417) scale(.9131)" gradientUnits="userSpaceOnUse"><stop offset="0" style="stop-color:#c3be2f"/><stop offset="1" style="stop-color:#80c241"/></linearGradient><path fill="url(#b)" d="M50.505 336.496c-23.05-21.826-37.823-51.359-37.823-90.787v-.209H0c0 46.191 8.238 89.16 24.518 126.609l25.987-35.613z"/><linearGradient id="c" x1="618.6553" x2="678.6901" y1="-616.2671" y2="-556.2322" gradientTransform="translate(-124.02 788.417) scale(.9131)" gradientUnits="userSpaceOnUse"><stop offset="0" style="stop-color:#6ccef5"/><stop offset="1" style="stop-color:#00b9c5"/></linearGradient><path fill="url(#c)" d="m454.315 212.703-23.574 24.355c32.632.458 52.694 25.664 51.986 57.807h12.694c.001-31.709-14.863-60.559-41.106-82.162z"/><linearGradient id="d" x1="691.042" x2="630.3761" y1="-513.5547" y2="-452.8899" gradientTransform="translate(-124.02 788.417) scale(.9131)" gradientUnits="userSpaceOnUse"><stop offset="0" style="stop-color:#00b9c5"/><stop offset="1" style="stop-color:#00a89b"/></linearGradient><path fill="url(#d)" d="M495.422 294.865h-12.694c-.623 26.451-14.754 48.668-46.113 65.158l33.097 45.59c16.168-29.845 25.71-66.418 25.71-110.748z"/><linearGradient id="e" x1="237.0381" x2="606.0116" y1="-578.0127" y2="-578.0127" gradientTransform="translate(-124.02 788.417) scale(.9131)" gradientUnits="userSpaceOnUse"><stop offset="0" style="stop-color:#0071bb"/><stop offset="1" style="stop-color:#6ccef5"/></linearGradient><path fill="url(#e)" d="M67.021 208.443a82.585 82.585 0 0 0-1.409 15.179c0 75.765 56.469 124.134 127.75 124.134 135.523 0 175.745-110.737 236.436-110.737.301 0 .622.04.943.04l23.574-24.355c-29.289-24.093-72.723-39.192-125.43-39.192-107.282 0-164.434 89.606-213.149 89.606-21.182 0-37.416-23.268-37.416-45.839 0-2.347.157-4.628.399-6.83l-11.698-2.006z"/><linearGradient id="f" x1="174.0439" x2="677.8691" y1="-777.7051" y2="-777.7051" gradientTransform="translate(-124.02 788.417) scale(.9131)" gradientUnits="userSpaceOnUse"><stop offset="0" style="stop-color:#fcb811"/><stop offset="0.598" style="stop-color:#f5831b"/><stop offset="1" style="stop-color:#f16421"/></linearGradient><path fill="url(#f)" d="M151.023 97.341c78.327 0 132.679 59.247 202.558 59.247 83.813 0 130.195-40.831 141.841-120.606l-12.694-2.11c-3.539 21.13-17.316 46.534-42.012 46.534-23.292 0-47.987-20.462-83.943-40.203C320.759 19.741 279.455 0 227.935 0 145.065 0 75.142 48.827 35.379 116.818l18.409 20.305c23.785-24.617 56.994-39.782 97.235-39.782z"/><linearGradient id="g" x1="190.6201" x2="613.4913" y1="-397.2114" y2="-397.2114" gradientTransform="translate(-124.02 788.417) scale(.9131)" gradientUnits="userSpaceOnUse"><stop offset="0" style="stop-color:#80c241"/><stop offset="1" style="stop-color:#00a89b"/></linearGradient><path fill="url(#g)" d="M232.89 392.205c-60.658 0-137.358-13.135-182.385-55.709l-25.987 35.613c37.385 85.988 117.134 142.84 236.606 142.84 78.97 0 166.341-31.277 208.587-109.336l-33.097-45.59c-38.925 20.489-104.432 32.182-203.724 32.182z"/></svg>