<svg xmlns="http://www.w3.org/2000/svg" width="945.906" height="226.776" version="1.2" viewBox="0 0 709.43 170.082"><path fill="#c5c7cc" d="M672 105.25h-27.004l24.969 43.227H39.469l24.945-43.227H37.43L0 170.082h709.43zm0 0"/><path fill="#00b8ff" d="M231.504 85.219c-17.238 0-31.215-13.973-31.215-31.211s13.977-31.211 31.215-31.211c17.234 0 31.21 13.973 31.21 31.21 0 17.24-13.976 31.212-31.21 31.212m0-85.219c-29.828 0-54.008 24.18-54.008 54.008 0 29.828 24.18 54.008 54.008 54.008 29.824 0 54.004-24.18 54.004-54.008C285.508 24.18 261.328 0 231.504 0M101.426 30.168c0-12.496 32.808-12.656 39.902 3.402l18.445-10.648C154.711 10.785 136.293 0 118.078 0c-21.531 0-39.89 11.27-39.89 30.914 0 22.43 25.863 28.25 36.632 30.86 10.77 2.613 25.098 4.878 25.098 13.777 0 8.234-9.293 11.332-19.59 11.332-13.004 0-23.101-4.363-27.512-14.465l-17.62 10.176c5.437 15.687 23.292 25.422 44.62 25.422 27.762 0 43.227-12.813 43.227-33.391 0-16.3-14.211-26.695-31.488-30.895-15.403-3.742-30.13-5.902-30.13-13.562m282.243 35.617c-4.555 11.637-14.664 19.485-27.914 19.485-17.266 0-30.68-13.997-30.68-31.262 0-17.266 13.414-31.262 30.68-31.262 12.629 0 22.988 7.031 27.926 17.805l20.324-11.715C395.383 11.55 376.524 0 355.754 0 325.93 0 301.75 24.18 301.75 54.008c0 29.828 24.18 54.008 54.004 54.008 21.39 0 39.633-12.446 48.3-30.477zM479.312 2.71h-25.64l-41.606 102.478h26.32l28.137-73.391 28.957 73.39h26.325zm106.801 49.606h-24.832V24.254h24.832c9.215 0 15.403 5.625 15.403 13.996 0 8.414-6.188 14.066-15.403 14.066m21.047 15.442 1.969-1.18c10.082-6.035 15.863-16.328 15.863-28.242 0-20.941-15.422-35.566-37.496-35.566H537.98v102.476h23.301V72.43h22.535l18.954 32.816h26.039zm0 0"/></svg>